# xmcd
#
# Track frame offsets: 
#        150
#        16265
#        33082
#        48414
#        60035
#        75925
#        94237
#        108365
#        123360
#        142051
#        154658
#        173886
#
# Disc length: 2621 seconds
#
# Revision: 0
# Processed by: cddbd v1.5.2PL0 Copyright (c) Steve Scherf et al.
# Submitted via: ExactAudioCopy v0.99pb4
#
DISCID=870a3b0c
DTITLE=Dierks Bentley - Up On The Ridge
DYEAR=2010
DGENRE=Country
TTITLE0=Up On The Ridge
TTITLE1=Fallin For You
TTITLE2=Senor
TTITLE3=Rovin Gambler
TTITLE4=Draw Me a Map
TTITLE5=Bad Angel
TTITLE6=Fiddlin' Around
TTITLE7=You're Dead To Me
TTITLE8=Pride
TTITLE9=Love Grows Wild
TTITLE10=Bottle To The Bottom
TTITLE11=Down In The Mine
EXTD=
EXTT0=
EXTT1=
EXTT2=
EXTT3=
EXTT4=
EXTT5=
EXTT6=
EXTT7=
EXTT8=
EXTT9=
EXTT10=
EXTT11=
PLAYORDER=
